<svg width="3887" height="1760" xmlns="http://www.w3.org/2000/svg" xmlns:xlink="http://www.w3.org/1999/xlink" xml:space="preserve" overflow="hidden"><g transform="translate(-146 -275)"><g><g><g><g><path d="M288 558C288 597.764 255.764 630 216 630 176.235 630 144 597.764 144 558 144 518.235 176.235 486 216 486 255.764 486 288 518.235 288 558Z" fill="#FF0000" fill-rule="nonzero" fill-opacity="0.487259" transform="matrix(1.00116 0 0 1 304 1170)"/><path d="M720 558C720 597.764 687.764 630 648 630 608.235 630 576 597.764 576 558 576 518.235 608.235 486 648 486 687.764 486 720 518.235 720 558Z" fill="#FF0000" fill-rule="nonzero" fill-opacity="0.487259" transform="matrix(1.00116 0 0 1 304 1170)"/><path d="M351 378 351 270 474.3 270C484.2 270 493.2 273.6 499.5 280.8L596.7 378 351 378ZM315 378 87.3 378 184.5 280.8C191.7 273.6 200.7 270 209.7 270L315 270 315 378ZM738 378 663.3 378C653.4 378 644.4 374.4 638.1 367.2L524.7 254.7C511.2 241.2 493.2 234 473.4 234L209.7 234C190.8 234 171.9 241.2 158.4 254.7L46.8 367.2C39.6 374.4 36 383.4 36 393.3L36 486C36 525.6 68.4 558 108 558L117 558C117 503.1 161.1 459 216 459 270.9 459 315 503.1 315 558L549 558C549 503.1 593.1 459 648 459 702.9 459 747 503.1 747 558L792 558C811.8 558 828 541.8 828 522L828 468C828 418.5 787.5 378 738 378Z" fill="#FF0000" fill-rule="nonzero" fill-opacity="0.487259" transform="matrix(1.00116 0 0 1 304 1170)"/></g></g></g><g><g><g><path d="M927.042 536.708C927.042 563.544 905.085 585.5 878.25 585.5 851.415 585.5 829.458 563.544 829.458 536.708L829.458 487.917 805.063 243.958 902.646 243.958 927.042 487.917 927.042 536.708ZM731.875 536.708C731.875 563.544 709.919 585.5 683.083 585.5 656.248 585.5 634.292 563.544 634.292 536.708L634.292 487.917 622.094 243.958 719.677 243.958 731.875 487.917 731.875 536.708ZM536.708 487.917 536.708 536.708C536.708 563.544 514.752 585.5 487.917 585.5 461.081 585.5 439.125 563.544 439.125 536.708L439.125 487.917 451.323 243.958 548.906 243.958 536.708 487.917ZM487.917 878.25 292.75 878.25 292.75 683.083 487.917 683.083 487.917 878.25ZM243.958 536.708 243.958 487.917 268.354 243.958 365.938 243.958 341.542 487.917 341.542 536.708C341.542 563.544 319.585 585.5 292.75 585.5 265.915 585.5 243.958 563.544 243.958 536.708ZM975.833 170.771 195.167 170.771 146.375 487.917 146.375 536.708C146.375 563.544 168.331 585.5 195.167 585.5L195.167 1000.23 609.896 1000.23 609.896 683.083 878.25 683.083 878.25 1000.23 975.833 1000.23 975.833 585.5C1002.67 585.5 1024.63 563.544 1024.63 536.708L1024.63 487.917 975.833 170.771Z" fill="#92D050" fill-rule="nonzero" fill-opacity="1" transform="matrix(1 0 0 1.00085 151 276)"/></g></g></g><g><g><g><path d="M1746.26 1187.5 1787.82 1187.5 1801 1146.75 1733.08 1146.75 1746.26 1187.5Z" fill="#000000" fill-rule="nonzero" fill-opacity="1"/><path d="M1747.28 1201.08 1738.04 1335.08 1767.04 1364.08 1796.04 1335.08 1786.8 1201.08 1747.28 1201.08Z" fill="#000000" fill-rule="nonzero" fill-opacity="1"/><path d="M1984.33 1221.19C1983.95 1201.26 1974.64 1182.56 1958.97 1170.25 1933.6 1149.48 1903.78 1136.66 1872.47 1125.46L1839.16 1111.79C1836.61 1110.75 1834.95 1108.27 1834.95 1105.51L1834.95 1088.84C1860.1 1068.72 1875 1038.45 1875.61 1006.24L1892.91 976.551C1895.5 970.431 1896.54 963.766 1895.94 957.147 1892 912.637 1865.01 873.453 1824.82 853.914 1821.59 852.395 1817.78 852.735 1814.87 854.803L1808.01 859.558 1800.42 849.187C1798.09 845.916 1794.57 843.678 1790.62 842.945 1783.56 841.726 1776.4 841.117 1769.23 841.125 1708.06 841.133 1655.55 884.659 1644.19 944.766L1643.92 946.246C1640.62 963.883 1633.8 980.671 1623.85 995.601L1658.4 995.601 1658.4 1004.12C1658.4 1037.06 1673.37 1068.21 1699.08 1088.8L1699.08 1105.48C1699.08 1108.23 1697.42 1110.71 1694.87 1111.76L1661.59 1125.4C1630.27 1136.6 1600.47 1149.41 1575.24 1170.03 1559.4 1182.44 1550.01 1201.34 1549.71 1221.46L1549.71 1340.31 1555.14 1344.39C1584.92 1366.73 1663.69 1373.92 1707.95 1376.23L1723.93 1377.06 1697.5 1140.03 1705.18 1136.87C1717.94 1131.67 1726.27 1119.26 1726.25 1105.48L1726.25 1104.8C1752.38 1115.47 1781.66 1115.47 1807.79 1104.8L1807.79 1105.48C1807.76 1119.26 1816.09 1131.68 1828.84 1136.89L1836.53 1140.04 1810.09 1377.07 1826.06 1376.24C1870.36 1373.94 1949.13 1366.73 1978.91 1344.4L1984.35 1340.33ZM1685.57 1004.12 1685.57 995.601 1732.9 995.601C1802.72 995.601 1793.22 939.957 1823.77 931.991 1832.17 930.427 1840.84 931.544 1848.57 935.183L1848.57 1004.12C1848.57 1049.14 1812.08 1085.62 1767.07 1085.62 1722.06 1085.62 1685.57 1049.14 1685.57 1004.12ZM1930.03 1255.42 1868.91 1255.42 1868.91 1241.83 1930.03 1241.83Z" fill="#000000" fill-rule="nonzero" fill-opacity="1"/></g></g></g><text fill="#000000" fill-opacity="1" font-family="Grandview Display,Grandview Display_MSFontService,sans-serif" font-style="normal" font-variant="normal" font-weight="400" font-stretch="normal" font-size="128" text-anchor="start" direction="ltr" writing-mode="lr-tb" unicode-bidi="normal" text-decoration="none" transform="matrix(1 0 0 1 1610.48 1570)">100 $</text><g><g><g><path d="M1549.79 1028.08 1559.42 1037.71 1559.42 1259.08 1546.58 1271.92 1482.42 1271.92 1469.58 1259.08 1469.58 1037.71 1479.21 1028.08 1549.79 1028.08ZM1450.33 1291.17 1578.67 1291.17 1578.67 1008.83 1450.33 1008.83 1450.33 1291.17Z" fill="#000000" fill-rule="nonzero" fill-opacity="1"/><path d="M1514.5 1124.33C1532.22 1124.33 1546.58 1135.82 1546.58 1150 1546.58 1164.18 1532.22 1175.67 1514.5 1175.67 1496.78 1175.67 1482.42 1164.18 1482.42 1150 1482.42 1135.82 1496.78 1124.33 1514.5 1124.33Z" fill="#000000" fill-rule="nonzero" fill-opacity="1"/><path d="M1514.5 1220.58C1519.82 1220.58 1524.13 1224.89 1524.13 1230.21 1524.13 1235.52 1519.82 1239.83 1514.5 1239.83 1509.18 1239.83 1504.88 1235.52 1504.88 1230.21 1504.88 1224.89 1509.18 1220.58 1514.5 1220.58Z" fill="#000000" fill-rule="nonzero" fill-opacity="1"/><path d="M1514.5 1060.17C1519.82 1060.17 1524.13 1064.48 1524.13 1069.79 1524.13 1075.11 1519.82 1079.42 1514.5 1079.42 1509.18 1079.42 1504.88 1075.11 1504.88 1069.79 1504.88 1064.48 1509.18 1060.17 1514.5 1060.17Z" fill="#000000" fill-rule="nonzero" fill-opacity="1"/><path d="M1388.41 1092.57 1400.6 1087.76 1396.75 1068.51 1363.07 1081.98 1433.65 1254.59 1414.08 1155.77Z" fill="#000000" fill-rule="nonzero" fill-opacity="1"/><path d="M1437.5 1109.25 1427.55 1058.56 1437.5 1056.32 1437.5 1036.75 1404.78 1043.16 1437.5 1207.75Z" fill="#000000" fill-rule="nonzero" fill-opacity="1"/></g></g></g><g><g><g><path d="M304.79 406.875 346.291 406.875 359.447 366.188 291.634 366.188 304.79 406.875Z" fill="#000000" fill-rule="nonzero" fill-opacity="1" transform="matrix(1 0 0 1.00154 2156 780)"/><path d="M305.807 420.438 296.585 554.232 325.541 583.188 354.497 554.232 345.274 420.438 305.807 420.438Z" fill="#000000" fill-rule="nonzero" fill-opacity="1" transform="matrix(1 0 0 1.00154 2156 780)"/><path d="M542.5 440.51C542.119 420.616 532.823 401.945 517.179 389.651 491.844 368.914 462.068 356.111 430.813 344.935L397.551 331.284C395.007 330.239 393.346 327.762 393.346 325.012L393.346 308.371C418.458 288.272 433.333 258.049 433.939 225.89L451.218 196.249C453.805 190.139 454.844 183.484 454.242 176.875 450.312 132.434 423.36 93.3093 383.236 73.8004 380.004 72.2841 376.206 72.6231 373.294 74.6887L366.445 79.4356 358.871 69.0806C356.539 65.8145 353.031 63.5805 349.085 62.8486 342.03 61.6311 334.883 61.0231 327.724 61.0313 266.648 61.0391 214.218 104.498 202.881 164.513L202.61 165.991C199.318 183.601 192.499 200.363 182.565 215.271L217.068 215.271 217.068 223.781C217.07 256.668 232.014 287.771 257.688 308.323L257.688 324.978C257.688 327.728 256.027 330.206 253.483 331.251L220.255 344.874C188.98 356.056 159.224 368.839 134.038 389.434 118.218 401.819 108.847 420.693 108.541 440.781L108.541 559.453 113.966 563.522C143.701 585.825 222.344 593.014 266.544 595.312L282.5 596.14 256.107 359.474 263.777 356.328C276.517 351.135 284.836 338.736 284.813 324.978L284.813 324.3C310.905 334.956 340.135 334.956 366.228 324.3L366.228 324.978C366.196 338.737 374.511 351.142 387.25 356.341L394.92 359.488 368.52 596.153 384.47 595.326C428.704 593.027 507.346 585.832 537.089 563.535L542.514 559.467ZM244.193 223.781 244.193 215.271 291.451 215.271C361.163 215.271 351.682 159.712 382.185 151.758 390.567 150.197 399.228 151.311 406.943 154.945L406.943 223.781C406.943 268.723 370.51 305.156 325.568 305.156 280.626 305.156 244.193 268.723 244.193 223.781ZM488.284 474.688 427.253 474.688 427.253 461.125 488.284 461.125Z" fill="#000000" fill-rule="nonzero" fill-opacity="1" transform="matrix(1 0 0 1.00154 2156 780)"/></g></g></g><text fill="#000000" fill-opacity="1" font-family="Grandview Display,Grandview Display_MSFontService,sans-serif" font-style="normal" font-variant="normal" font-weight="400" font-stretch="normal" font-size="128" text-anchor="start" direction="ltr" writing-mode="lr-tb" unicode-bidi="normal" text-decoration="none" transform="matrix(1 0 0 1 2359.18 1570)">50 $</text><g><g><g><path d="M2264.79 1028.08 2274.42 1037.71 2274.42 1259.08 2261.58 1271.92 2197.42 1271.92 2184.58 1259.08 2184.58 1037.71 2194.21 1028.08 2264.79 1028.08ZM2165.33 1291.17 2293.67 1291.17 2293.67 1008.83 2165.33 1008.83 2165.33 1291.17Z" fill="#000000" fill-rule="nonzero" fill-opacity="1"/><path d="M2229.5 1124.33C2247.22 1124.33 2261.58 1135.82 2261.58 1150 2261.58 1164.18 2247.22 1175.67 2229.5 1175.67 2211.78 1175.67 2197.42 1164.18 2197.42 1150 2197.42 1135.82 2211.78 1124.33 2229.5 1124.33Z" fill="#000000" fill-rule="nonzero" fill-opacity="1"/><path d="M2229.5 1220.58C2234.82 1220.58 2239.12 1224.89 2239.12 1230.21 2239.12 1235.52 2234.82 1239.83 2229.5 1239.83 2224.18 1239.83 2219.88 1235.52 2219.88 1230.21 2219.88 1224.89 2224.18 1220.58 2229.5 1220.58Z" fill="#000000" fill-rule="nonzero" fill-opacity="1"/><path d="M2229.5 1060.17C2234.82 1060.17 2239.12 1064.48 2239.12 1069.79 2239.12 1075.11 2234.82 1079.42 2229.5 1079.42 2224.18 1079.42 2219.88 1075.11 2219.88 1069.79 2219.88 1064.48 2224.18 1060.17 2229.5 1060.17Z" fill="#000000" fill-rule="nonzero" fill-opacity="1"/><path d="M2103.41 1092.57 2115.6 1087.76 2111.75 1068.51 2078.07 1081.98 2148.65 1254.59 2129.08 1155.77Z" fill="#000000" fill-rule="nonzero" fill-opacity="1"/><path d="M2152.5 1109.25 2142.55 1058.56 2152.5 1056.32 2152.5 1036.75 2119.78 1043.16 2152.5 1207.75Z" fill="#000000" fill-rule="nonzero" fill-opacity="1"/></g></g></g><g><g><g><path d="M304.79 406.875 346.291 406.875 359.447 366.188 291.634 366.188 304.79 406.875Z" fill="#000000" fill-rule="nonzero" fill-opacity="1" transform="matrix(1 0 0 1.00154 2873 780)"/><path d="M305.807 420.438 296.585 554.232 325.541 583.188 354.497 554.232 345.274 420.438 305.807 420.438Z" fill="#000000" fill-rule="nonzero" fill-opacity="1" transform="matrix(1 0 0 1.00154 2873 780)"/><path d="M542.5 440.51C542.119 420.616 532.823 401.945 517.179 389.651 491.844 368.914 462.068 356.111 430.813 344.935L397.551 331.284C395.007 330.239 393.346 327.762 393.346 325.012L393.346 308.371C418.458 288.272 433.333 258.049 433.939 225.89L451.218 196.249C453.805 190.139 454.844 183.484 454.242 176.875 450.312 132.434 423.36 93.3093 383.236 73.8004 380.004 72.2841 376.206 72.6231 373.294 74.6887L366.445 79.4356 358.871 69.0806C356.539 65.8145 353.031 63.5805 349.085 62.8486 342.03 61.6311 334.883 61.0231 327.724 61.0313 266.648 61.0391 214.218 104.498 202.881 164.513L202.61 165.991C199.318 183.601 192.499 200.363 182.565 215.271L217.068 215.271 217.068 223.781C217.07 256.668 232.014 287.771 257.688 308.323L257.688 324.978C257.688 327.728 256.027 330.206 253.483 331.251L220.255 344.874C188.98 356.056 159.224 368.839 134.038 389.434 118.218 401.819 108.847 420.693 108.541 440.781L108.541 559.453 113.966 563.522C143.701 585.825 222.344 593.014 266.544 595.312L282.5 596.14 256.107 359.474 263.777 356.328C276.517 351.135 284.836 338.736 284.813 324.978L284.813 324.3C310.905 334.956 340.135 334.956 366.228 324.3L366.228 324.978C366.196 338.737 374.511 351.142 387.25 356.341L394.92 359.488 368.52 596.153 384.47 595.326C428.704 593.027 507.346 585.832 537.089 563.535L542.514 559.467ZM244.193 223.781 244.193 215.271 291.451 215.271C361.163 215.271 351.682 159.712 382.185 151.758 390.567 150.197 399.228 151.311 406.943 154.945L406.943 223.781C406.943 268.723 370.51 305.156 325.568 305.156 280.626 305.156 244.193 268.723 244.193 223.781ZM488.284 474.688 427.253 474.688 427.253 461.125 488.284 461.125Z" fill="#000000" fill-rule="nonzero" fill-opacity="1" transform="matrix(1 0 0 1.00154 2873 780)"/></g></g></g><text fill="#000000" fill-opacity="1" font-family="Grandview Display,Grandview Display_MSFontService,sans-serif" font-style="normal" font-variant="normal" font-weight="400" font-stretch="normal" font-size="128" text-anchor="start" direction="ltr" writing-mode="lr-tb" unicode-bidi="normal" text-decoration="none" transform="matrix(1 0 0 1 3042.28 1570)">200 $</text><g><g><g><path d="M2981.79 1028.08 2991.42 1037.71 2991.42 1259.08 2978.58 1271.92 2914.42 1271.92 2901.58 1259.08 2901.58 1037.71 2911.21 1028.08 2981.79 1028.08ZM2882.33 1291.17 3010.67 1291.17 3010.67 1008.83 2882.33 1008.83 2882.33 1291.17Z" fill="#000000" fill-rule="nonzero" fill-opacity="1"/><path d="M2946.5 1124.33C2964.22 1124.33 2978.58 1135.82 2978.58 1150 2978.58 1164.18 2964.22 1175.67 2946.5 1175.67 2928.78 1175.67 2914.42 1164.18 2914.42 1150 2914.42 1135.82 2928.78 1124.33 2946.5 1124.33Z" fill="#000000" fill-rule="nonzero" fill-opacity="1"/><path d="M2946.5 1220.58C2951.82 1220.58 2956.13 1224.89 2956.13 1230.21 2956.13 1235.52 2951.82 1239.83 2946.5 1239.83 2941.18 1239.83 2936.88 1235.52 2936.88 1230.21 2936.88 1224.89 2941.18 1220.58 2946.5 1220.58Z" fill="#000000" fill-rule="nonzero" fill-opacity="1"/><path d="M2946.5 1060.17C2951.82 1060.17 2956.13 1064.48 2956.13 1069.79 2956.13 1075.11 2951.82 1079.42 2946.5 1079.42 2941.18 1079.42 2936.88 1075.11 2936.88 1069.79 2936.88 1064.48 2941.18 1060.17 2946.5 1060.17Z" fill="#000000" fill-rule="nonzero" fill-opacity="1"/><path d="M2820.41 1092.57 2832.6 1087.76 2828.75 1068.51 2795.07 1081.98 2865.65 1254.59 2846.08 1155.77Z" fill="#000000" fill-rule="nonzero" fill-opacity="1"/><path d="M2869.5 1109.25 2859.55 1058.56 2869.5 1056.32 2869.5 1036.75 2836.78 1043.16 2869.5 1207.75Z" fill="#000000" fill-rule="nonzero" fill-opacity="1"/></g></g></g><text fill="#000000" fill-opacity="1" font-family="Grandview Display,Grandview Display_MSFontService,sans-serif" font-style="normal" font-variant="normal" font-weight="400" font-stretch="normal" font-size="403" text-anchor="start" direction="ltr" writing-mode="lr-tb" unicode-bidi="normal" text-decoration="none" transform="matrix(1 0 0 1 3551.42 1181)">…</text></g></g></svg>